<svg xmlns="http://www.w3.org/2000/svg" viewBox="0 0 1200 790" role="img" aria-labelledby="title desc">
  <title id="title">Hugeicons candidates for Trace</title>
  <desc id="desc">Six free Hugeicons candidates compared in the BB monochrome UI style.</desc>
  <defs>
    <style>
      .card { fill: #171D22; stroke: #2A3239; stroke-width: 1; }
      .label { font: 600 19px -apple-system, BlinkMacSystemFont, "Segoe UI", sans-serif; fill: #F4F4F5; }
      .note { font: 400 14px -apple-system, BlinkMacSystemFont, "Segoe UI", sans-serif; fill: #98A2AD; }
      .num { font: 700 11px -apple-system, BlinkMacSystemFont, "Segoe UI", sans-serif; letter-spacing: 2px; fill: #98A2AD; }
      .icon { fill: none; stroke: #F4F4F5; stroke-width: 1.5; stroke-linecap: round; stroke-linejoin: round; }
    </style>
    <symbol id="waypoints" viewBox="0 0 24 24">
      <g class="icon">
        <circle cx="19" cy="5" r="2"/><circle cx="12" cy="12" r="2"/><circle cx="5" cy="19" r="2"/>
        <path d="M7 11.5C5.81753 10.952 5 9.77629 5 8.41428C5 6.52863 6.567 5 8.5 5H14"/>
        <path d="M10 19H15.5C17.433 19 19 17.4714 19 15.5857C19 14.2237 18.1825 13.048 17 12.5"/>
      </g>
    </symbol>
    <symbol id="timeline-list" viewBox="0 0 24 24">
      <g class="icon">
        <path d="M4 9C4.55228 9 5 8.55228 5 8C5 7.44772 4.55228 7 4 7C3.44772 7 3 7.44772 3 8C3 8.55228 3.44772 9 4 9Z"/>
        <path d="M4 17C4.55228 17 5 16.5523 5 16C5 15.4477 4.55228 15 4 15C3.44772 15 3 15.4477 3 16C3 16.5523 3.44772 17 4 17Z"/>
        <path d="M4 21V3"/>
        <path d="M9.91421 9.41421L9.35355 8.85355C9.29393 8.79393 9.26412 8.76412 9.23778 8.73311C9.10232 8.5736 9.02031 8.37561 9.00331 8.16703C9 8.12647 9 8.08432 9 8C9 7.91568 9 7.87353 9.00331 7.83297C9.02031 7.62439 9.10232 7.4264 9.23778 7.26689C9.26412 7.23588 9.29393 7.20607 9.35355 7.14645L9.91421 6.58579C10.2032 6.29676 10.3478 6.15224 10.5315 6.07612C10.7153 6 10.9197 6 11.3284 6H17C17.9428 6 18.4142 6 18.7071 6.29289C19 6.58579 19 7.05719 19 8C19 8.94281 19 9.41421 18.7071 9.70711C18.4142 10 17.9428 10 17 10H11.3284C10.9197 10 10.7153 10 10.5315 9.92388C10.3478 9.84776 10.2032 9.70324 9.91421 9.41421Z"/>
        <path d="M9.91421 17.4142L9.35355 16.8536C9.29393 16.7939 9.26412 16.7641 9.23778 16.7331C9.10232 16.5736 9.02031 16.3756 9.00331 16.167C9 16.1265 9 16.0843 9 16C9 15.9157 9 15.8735 9.00331 15.833C9.02031 15.6244 9.10232 15.4266 9.23778 15.2669C9.26412 15.2359 9.29393 15.2061 9.35355 15.1464L9.91421 14.5858C10.2032 14.2968 10.3478 14.1522 10.5315 14.0761C10.7153 14 10.9197 14 11.3284 14H19C19.9428 14 20.4142 14.472 20.7071 14.7649C21 15.0578 21 15.5292 21 16C21 16.9428 21 17.4142 20.7071 17.7071C20.4142 18 20.4142 18 19 18H11.3284C10.9197 18 10.7153 18 10.5315 17.9239C10.3478 17.8478 10.2032 17.7032 9.91421 17.4142Z"/>
      </g>
    </symbol>
    <symbol id="flow" viewBox="0 0 24 24">
      <g class="icon">
        <path d="M2.5 5.5C2.5 3.85008 2.5 3.02513 3.01256 2.51256C3.52513 2 4.35008 2 6 2C7.64992 2 8.47487 2 8.98744 2.51256C9.5 3.02513 9.5 3.85008 9.5 5.5C9.5 7.14992 9.5 7.97487 8.98744 8.48744C8.47487 9 7.64992 9 6 9C4.35008 9 3.52513 9 3.01256 8.48744C2.5 7.97487 2.5 7.14992 2.5 5.5Z"/>
        <path d="M3.65685 15.6569C4.76142 14.5523 5.31371 14 6 14C6.68629 14 7.23858 14.5523 8.34315 15.6569C9.44772 16.7614 10 17.3137 10 18C10 18.6863 9.44772 19.2386 8.34315 20.3431C7.23858 21.4477 6.68629 22 6 22C5.31371 22 4.76142 21.4477 3.65685 20.3431C2.55228 19.2386 2 18.6863 2 18C2 17.3137 2.55228 16.7614 3.65685 15.6569Z"/>
        <path d="M6 9V14M10 18H15"/>
        <path d="M15 18C15 16.3501 15 15.5251 15.5126 15.0126C16.0251 14.5 16.8501 14.5 18.5 14.5C20.1499 14.5 20.9749 14.5 21.4874 15.0126C22 15.5251 22 16.3501 22 18C22 19.6499 22 20.4749 21.4874 20.9874C20.9749 21.5 20.1499 21.5 18.5 21.5C16.8501 21.5 16.0251 21.5 15.5126 20.9874C15 20.4749 15 19.6499 15 18Z"/>
      </g>
    </symbol>
    <symbol id="activity" viewBox="0 0 24 24">
      <g class="icon">
        <path d="M4.31802 19.682C3 18.364 3 16.2426 3 12C3 7.75736 3 5.63604 4.31802 4.31802C5.63604 3 7.75736 3 12 3C16.2426 3 18.364 3 19.682 4.31802C21 5.63604 21 7.75736 21 12C21 16.2426 21 18.364 19.682 19.682C18.364 21 16.2426 21 12 21C7.75736 21 5.63604 21 4.31802 19.682Z"/>
        <path d="M7 14L9.79289 11.2071C10.1834 10.8166 10.8166 10.8166 11.2071 11.2071L12.7929 12.7929C13.1834 13.1834 13.8166 13.1834 14.2071 12.7929L17 10"/>
      </g>
    </symbol>
    <symbol id="logs" viewBox="0 0 24 24">
      <g class="icon">
        <path d="M9.99609 5H20.9961M2.99609 5H5.49609M9.99609 12H20.9961M2.99609 12H5.49609M9.99609 19H20.9961M2.99609 19H5.49609"/>
      </g>
    </symbol>
    <symbol id="inspect" viewBox="0 0 24 24">
      <g class="icon">
        <path d="M17.5 17.5L22 22"/>
        <path d="M20 11C20 6.02944 15.9706 2 11 2C6.02944 2 2 6.02944 2 11C2 15.9706 6.02944 20 11 20C15.9706 20 20 15.9706 20 11Z"/>
        <path d="M14.5 9.5L15.4199 10.2929C15.8066 10.6262 16 10.7929 16 11C16 11.2071 15.8066 11.3738 15.4199 11.7071L14.5 12.5M7.5 9.5L6.58009 10.2929C6.19337 10.6262 6 10.7929 6 11C6 11.2071 6.19336 11.3738 6.58009 11.7071L7.5 12.5M12 8.5L10 13.5"/>
      </g>
    </symbol>
  </defs>

  <rect width="1200" height="790" rx="28" fill="#101418"/>
  <text x="44" y="48" font-size="13" font-weight="700" letter-spacing="3" fill="#98A2AD" font-family="-apple-system, BlinkMacSystemFont, 'Segoe UI', sans-serif">TRACE / HUGEICONS CANDIDATES</text>
  <text x="1156" y="48" text-anchor="end" font-size="13" fill="#68737E" font-family="-apple-system, BlinkMacSystemFont, 'Segoe UI', sans-serif">core-free · stroke rounded · 24px</text>

  <g><rect class="card" x="40" y="78" width="360" height="300" rx="18"/><use href="#waypoints" x="164" y="101" width="112" height="112"/><text class="num" x="66" y="252">01 · RECOMMENDED</text><text class="label" x="66" y="281">WaypointsIcon</text><text class="note" x="66" y="310">最贴近 Trace trajectory</text></g>
  <g><rect class="card" x="420" y="78" width="360" height="300" rx="18"/><use href="#timeline-list" x="544" y="101" width="112" height="112"/><text class="num" x="446" y="252">02</text><text class="label" x="446" y="281">TimelineListIcon</text><text class="note" x="446" y="310">事件序列与日志列表</text></g>
  <g><rect class="card" x="800" y="78" width="360" height="300" rx="18"/><use href="#flow" x="924" y="101" width="112" height="112"/><text class="num" x="826" y="252">03</text><text class="label" x="826" y="281">FlowConnectionIcon</text><text class="note" x="826" y="310">多阶段工具链路</text></g>
  <g><rect class="card" x="40" y="408" width="360" height="300" rx="18"/><use href="#activity" x="164" y="431" width="112" height="112"/><text class="num" x="66" y="582">04</text><text class="label" x="66" y="611">Activity01Icon</text><text class="note" x="66" y="640">活动与事件变化</text></g>
  <g><rect class="card" x="420" y="408" width="360" height="300" rx="18"/><use href="#logs" x="544" y="431" width="112" height="112"/><text class="num" x="446" y="582">05</text><text class="label" x="446" y="611">LogsIcon</text><text class="note" x="446" y="640">原始 JSONL / trace 记录</text></g>
  <g><rect class="card" x="800" y="408" width="360" height="300" rx="18"/><use href="#inspect" x="924" y="431" width="112" height="112"/><text class="num" x="826" y="582">06</text><text class="label" x="826" y="611">InspectCodeIcon</text><text class="note" x="826" y="640">搜索与检查嵌套 payload</text></g>
</svg>
